<svg xmlns="http://www.w3.org/2000/svg" width="100%" height="100%" style="" viewBox="0 0 64 64" fill="none" preserveAspectRatio="xMidYMid meet" aria-hidden="true" role="img">
    <rect width="64" height="64" fill="#1C2026"></rect>
    <path d="M32.0656 0.524658C14.2951 0.524658 0 14.9509 0 32.787C0 47.082 9.18033 59.1476 21.9016 63.4099C23.4754 63.7378 24.0656 62.6886 24.0656 61.8361C24.0656 61.1148 24 58.4919 24 55.8689C15.082 57.7706 13.2459 52.0001 13.2459 52.0001C11.8033 48.2624 9.70492 47.2788 9.70492 47.2788C6.81967 45.3115 9.90164 45.3115 9.90164 45.3115C13.1148 45.5083 14.8197 48.6558 14.8197 48.6558C17.7049 53.5738 22.2951 52.1968 24.1311 51.3443C24.3934 49.246 25.2459 47.8033 26.1639 47.0165C19.082 46.2952 11.6066 43.4755 11.6066 31.082C11.6066 27.5411 12.8525 24.6558 14.8852 22.4263C14.5574 21.6394 13.4426 18.2951 15.2131 13.9017C15.2131 13.9017 17.9016 13.0492 24 17.246C26.5574 16.5247 29.3115 16.1968 32 16.1968C34.6885 16.1968 37.4426 16.5902 40 17.246C46.0984 13.0492 48.7869 13.9017 48.7869 13.9017C50.5574 18.3607 49.4426 21.6394 49.1148 22.4263C51.2131 24.6558 52.3934 27.5411 52.3934 31.082C52.3934 43.4755 44.918 46.2296 37.7705 47.0165C38.9508 48.0001 39.9344 49.9673 39.9344 52.9837C39.9344 57.3115 39.8689 60.787 39.8689 61.8361C39.8689 62.6886 40.459 63.7378 42.0328 63.4099C54.8197 59.1476 64 47.082 64 32.787C64.0656 14.9509 49.7049 0.524658 32.0656 0.524658Z" fill="white"></path>
</svg>