<svg xmlns="http://www.w3.org/2000/svg" width="80" height="80" viewBox="0 0 80 80" fill="none">
    <rect x="1" y="1" width="78" height="78" rx="12" stroke="#e1e1e1" strokeWidth="2" fill="white"/>
    <g transform="translate(20, 20)">
        <path d="M20 0C31.0457 0 40 8.9543 40 20C40 31.0457 31.0457 40 20 40C8.9543 40 0 31.0457 0 20C0 8.9543 8.9543 0 20 0Z" fill="#267ffa"/>
        <path d="M20 8C26.6274 8 32 13.3726 32 20C32 26.6274 26.6274 32 20 32C13.3726 32 8 26.6274 8 20C8 13.3726 13.3726 8 20 8Z" fill="white"/>
        <path d="M20 12C24.4183 12 28 15.5817 28 20C28 24.4183 24.4183 28 20 28C15.5817 28 12 24.4183 12 20C12 15.5817 15.5817 12 20 12Z" fill="#267ffa"/>
    </g>
</svg> 